<?xml version="1.0" encoding="iso-8859-1"?>
<!-- Generator: Adobe Illustrator 19.0.0, SVG Export Plug-In . SVG Version: 6.00 Build 0)  -->
<svg version="1.1" id="Layer_1" xmlns="http://www.w3.org/2000/svg" xmlns:xlink="http://www.w3.org/1999/xlink" x="0px" y="0px"
	 viewBox="0 0 511.999 511.999" style="enable-background:new 0 0 511.999 511.999;" xml:space="preserve">
<path style="fill:#FF1A1A;" d="M437.655,116.224c1.667-0.168,3.343-0.261,5.021-0.261c14.761,0,28.002,6.641,36.954,17.098
	c13.293-10.165,21.874-26.18,21.874-44.208c0-30.723-24.906-55.628-55.628-55.628c-27.514,0-50.346,19.978-54.82,46.217
	C412.118,82.129,430.063,96.265,437.655,116.224z"/>
<path style="fill:#FFFFFF;" d="M491.45,165.035c0-27.059-21.879-49.072-48.774-49.072c-1.679,0-3.355,0.093-5.021,0.261
	c-8.458-22.237-29.763-37.255-53.915-37.255c-24.154,0-45.457,15.02-53.914,37.255c-1.668-0.168-3.342-0.261-5.024-0.261
	c-26.892,0-48.77,22.013-48.77,49.072H491.45z"/>
<polygon style="fill:#3F5968;" points="314.492,433.361 407.995,252.489 501.499,433.361 "/>
<polygon style="fill:#FFFFFF;" points="407.995,252.489 371.309,323.456 371.309,323.456 391.439,338.064 407.971,323.363 
	424.458,338.064 444.634,323.363 444.634,323.363 "/>
<polygon style="fill:#3F5968;" points="10.498,433.361 165.403,133.715 320.307,433.361 "/>
<polygon style="fill:#FFFFFF;" points="165.403,133.715 104.624,251.285 104.625,251.285 137.975,275.484 165.364,251.132 
	192.677,275.484 226.103,251.132 "/>
<path d="M276.03,175.531h215.42c5.796,0,10.496-4.699,10.496-10.496c0-11.116-3.046-21.53-8.341-30.444
	c11.781-12.229,18.395-28.416,18.395-45.738c0-36.461-29.663-66.124-66.124-66.124c-29.126,0-54.249,18.76-62.912,45.758
	c-25.227,0.293-48.345,14.815-59.818,37.003c-31.916,0.886-57.611,27.257-57.611,59.545
	C265.534,170.831,270.234,175.531,276.03,175.531z M445.876,43.72c24.886,0,45.132,20.247,45.132,45.132
	c0,11.153-4.024,21.616-11.233,29.778c-9.763-7.899-22.049-12.769-35.441-13.142c-8.403-16.25-23.052-28.387-40.201-33.838
	C410.937,55.014,427.201,43.72,445.876,43.72z M324.8,126.458c1.264,0,2.6,0.069,3.972,0.208c4.723,0.479,9.176-2.276,10.863-6.711
	c6.937-18.238,24.661-30.492,44.105-30.492s37.169,12.253,44.105,30.491c1.686,4.437,6.145,7.191,10.864,6.712
	c1.371-0.139,2.706-0.208,3.967-0.208c17.499,0,32.292,11.893,36.838,28.081H287.965C292.512,138.351,307.303,126.458,324.8,126.458
	z"/>
<path d="M63.838,414.776c1.541,0.798,3.188,1.174,4.811,1.174c3.8,0,7.467-2.07,9.332-5.678l25.46-49.249
	c2.663-5.148,0.646-11.481-4.504-14.143c-5.144-2.663-11.48-0.648-14.143,4.504l-25.46,49.249
	C56.672,405.782,58.689,412.114,63.838,414.776z"/>
<path d="M105.629,333.938c1.542,0.798,3.189,1.174,4.812,1.174c3.8,0,7.466-2.07,9.332-5.677l8.077-15.623
	c2.663-5.149,0.646-11.481-4.503-14.144c-5.148-2.663-11.48-0.647-14.144,4.503l-8.077,15.623
	C98.463,324.943,100.481,331.276,105.629,333.938z"/>
<path d="M417.319,247.669c-1.802-3.487-5.399-5.676-9.324-5.676s-7.521,2.189-9.323,5.676l-81.273,157.213L174.726,128.895
	c-1.802-3.487-5.398-5.676-9.323-5.676c-3.925,0-7.521,2.189-9.324,5.676L1.175,428.542c-2.663,5.148-0.645,11.481,4.504,14.143
	c1.654,0.855,3.43,1.222,5.169,1.162c0.066,0.001,0.131,0.011,0.197,0.011h490.431c0.01,0,0.021,0.002,0.03,0.002
	c1.624,0,3.271-0.377,4.811-1.174c5.149-2.662,7.166-8.994,4.504-14.143L417.319,247.669z M407.995,275.345l23.18,44.84l-6.053,4.41
	l-10.165-9.064c-3.977-3.544-9.978-3.55-13.96-0.009l-10.225,9.092l-5.997-4.352L407.995,275.345z M108.342,266.949l23.469,17.031
	c1.846,1.339,4.007,2.001,6.162,2.001c2.503,0,4.997-0.893,6.976-2.652l20.405-18.142l20.338,18.133
	c3.688,3.288,9.17,3.561,13.166,0.649l23.538-17.149l80.67,156.048H27.739L108.342,266.949z M165.403,156.57l47.241,91.381
	l-19.302,14.062l-20.993-18.716c-3.977-3.544-9.978-3.551-13.96-0.009l-21.082,18.744l-19.217-13.944L165.403,156.57z
	 M331.732,422.865l43.293-83.745l10.25,7.438c1.846,1.339,4.006,2.001,6.162,2.001c2.503,0,4.998-0.893,6.977-2.652l9.549-8.49
	l9.51,8.481c3.689,3.288,9.171,3.56,13.166,0.649l10.29-7.497l43.329,83.815H331.732V422.865z"/>
<path d="M368.479,468.279h-22.618c-5.796,0-10.496,4.7-10.496,10.496s4.7,10.496,10.496,10.496h22.618
	c5.797,0,10.496-4.7,10.496-10.496S374.276,468.279,368.479,468.279z"/>
<path d="M447.286,468.279h-43.12c-5.796,0-10.496,4.7-10.496,10.496s4.7,10.496,10.496,10.496h43.119
	c5.796,0,10.496-4.7,10.496-10.496S453.082,468.279,447.286,468.279z"/>
<path d="M310.177,468.279H62.406c-5.796,0-10.496,4.7-10.496,10.496s4.7,10.496,10.496,10.496h247.77
	c5.797,0,10.496-4.7,10.496-10.496S315.973,468.279,310.177,468.279z"/>
<g>
</g>
<g>
</g>
<g>
</g>
<g>
</g>
<g>
</g>
<g>
</g>
<g>
</g>
<g>
</g>
<g>
</g>
<g>
</g>
<g>
</g>
<g>
</g>
<g>
</g>
<g>
</g>
<g>
</g>
</svg>
